<svg version="1.1" xmlns="http://www.w3.org/2000/svg" xmlns:xlink="http://www.w3.org/1999/xlink">
  <defs>
    <clipPath id="pie-clip" viewBox="0 0 100 100">
      <path d="M5.11,26.573c0.034,0.048,0.091,0.08,0.139,0.118c0.047,0.039,0.098,0.069,0.143,0.113 c0.1,0.1,0.209,0.191,0.314,0.286c0.016,0.032,0.046,0.036,0.077,0.043c0.003,0.024,0.019,0.036,0.041,0.043 c0.013,0.013,0.027,0.026,0.04,0.039l0,0.001l0.042,0.038l0,0c0.007,0.02,0.021,0.033,0.042,0.035 c0.035,0.031,0.064,0.07,0.104,0.089c0.103,0.05,0.181,0.128,0.265,0.202c0.016,0.037,0.04,0.067,0.08,0.081 c0.095,0.103,0.209,0.178,0.328,0.248c0.004,0.005,0.01,0.008,0.014,0.011c0.02,0.017,0.039,0.034,0.059,0.05h0 c0.031,0.068,0.094,0.09,0.16,0.107c0.004,0.002,0.009,0.004,0.014,0.005c0.025,0.012,0.05,0.022,0.077,0.033 c0.051,0.099,0.149,0.132,0.24,0.177c0.034,0.048,0.076,0.086,0.132,0.106c0,0.004,0.004,0.008,0.013,0.012c0.001,0,0.001,0,0.002,0 c0.008,0.007,0.017,0.015,0.024,0.021c0.012,0.009,0.024,0.016,0.037,0.025c0.05,0.072,0.125,0.096,0.208,0.104l0,0 c0.027,0.014,0.055,0.028,0.082,0.042c0.012,0.029,0.036,0.043,0.067,0.046c0.018,0.013,0.036,0.025,0.054,0.038c0,0,0,0,0,0 s0,0,0,0c0.016,0.01,0.03,0.023,0.042,0.038c0.006,0.022,0.019,0.035,0.042,0.039l0.001,0.001C8,28.788,8.011,28.8,8.032,28.804v0v0 c0.027,0.016,0.055,0.032,0.082,0.048c0.02,0.028,0.047,0.041,0.082,0.039c0.01,0.005,0.021,0.009,0.032,0.01 c0.016,0.01,0.032,0.021,0.049,0.033c0.012,0.011,0.026,0.02,0.042,0.027l0,0c0.028,0.003,0.056,0.006,0.084,0.01L8.4,28.973 c0.007,0.021,0.02,0.035,0.041,0.04l0,0c0,0.025,0.013,0.039,0.037,0.044c0.104,0.057,0.209,0.114,0.314,0.171 c0.122,0.057,0.255,0.09,0.364,0.172c0.158,0.12,0.338,0.201,0.511,0.288c0.17,0.085,0.338,0.168,0.501,0.262 c0.035,0.02,0.076,0.028,0.113,0.042c0.009,0.008,0.02,0.01,0.032,0.008c0.101,0.045,0.201,0.092,0.303,0.135 c0.035,0.015,0.075,0.02,0.113,0.03c0.015,0.01,0.03,0.02,0.045,0.029c0.104,0.047,0.195,0.122,0.312,0.139 c0.028,0.018,0.057,0.036,0.093,0.029c0.011,0.004,0.022,0.007,0.036,0.006c0,0.003,0.005,0.005,0.012,0.007 c0.012,0.007,0.024,0.015,0.037,0.022c0.119,0.064,0.242,0.118,0.376,0.142c0.153,0.027,0.3,0.076,0.44,0.147 c0.151,0.077,0.315,0.115,0.483,0.138c0.025,0.023,0.054,0.035,0.088,0.028c0.013,0.003,0.026,0.005,0.039,0.006 c0.033,0.039,0.076,0.042,0.123,0.04c0.011,0.006,0.023,0.008,0.035,0.004c0.065,0.035,0.138,0.038,0.209,0.044 c0.085,0.06,0.189,0.052,0.283,0.079c0.052,0.04,0.112,0.034,0.172,0.028c0.045,0.014,0.089,0.034,0.135,0.042 c0.188,0.032,0.373,0.076,0.556,0.126c0.091,0.025,0.182,0.057,0.28,0.049c0.092,0.056,0.191,0.049,0.292,0.038 c0.011,0.01,0.024,0.019,0.039,0.024v0c0.131,0.068,0.271,0.059,0.411,0.057c0.01,0.006,0.02,0.009,0.031,0.008 c0.025,0.026,0.058,0.025,0.093,0.026c0.094,0.003,0.189-0.002,0.279,0.017c0.204,0.044,0.411,0.059,0.617,0.076 c0.08,0,0.157,0.002,0.236,0.002c0.041,0.028,0.085,0.04,0.135,0.032c0.122,0,0.244,0,0.366,0c0.041,0,0.082-0.001,0.123-0.002 c0.028,0,0.055,0.001,0.082,0.002c0.027,0,0.055,0,0.082,0c0.028,0.001,0.054,0.002,0.082,0.005c0.05,0.022,0.104,0.006,0.155,0.008 c0.033,0.008,0.064,0.023,0.097,0.024c0.181,0.005,0.361,0.007,0.542,0.009c0.041,0.001,0.081-0.006,0.114-0.034 c0.169,0,0.337-0.024,0.507-0.033c0.169-0.01,0.337-0.023,0.502-0.062c0.117,0.006,0.226-0.022,0.33-0.076 c0.074,0,0.149,0.007,0.221-0.004c0.218-0.033,0.434-0.074,0.651-0.11c0.077-0.012,0.143-0.059,0.226-0.051 c0.028,0.002,0.058-0.024,0.088-0.038c0.034,0.002,0.065-0.002,0.085-0.033c0,0,0,0,0,0.001c0.014,0.003,0.026,0,0.037-0.01 c0.014-0.002,0.028-0.005,0.042-0.008c0.022,0.003,0.036-0.007,0.044-0.026l0.001,0.001c0.056-0.001,0.109-0.021,0.158-0.049 c0.047,0.005,0.091,0.001,0.125-0.035c0.12-0.004,0.217-0.065,0.317-0.119c0.134-0.072,0.272-0.138,0.417-0.19 c0.03-0.01,0.056-0.033,0.084-0.05l0,0c0.039-0.019,0.078-0.038,0.117-0.057c0.035,0.006,0.064-0.006,0.087-0.033 c0.141-0.066,0.282-0.133,0.423-0.2c0.043-0.021,0.086-0.041,0.113-0.083c0.076-0.014,0.137-0.054,0.193-0.106 c0.04-0.036,0.082-0.07,0.128-0.099c0.184-0.113,0.352-0.25,0.523-0.38c0.024-0.014,0.048-0.024,0.07-0.039 c0.145-0.099,0.275-0.214,0.418-0.312c0.151-0.105,0.277-0.228,0.386-0.372c0.021-0.005,0.032-0.02,0.035-0.04 c0.032-0.021,0.063-0.044,0.078-0.081c0.054-0.043,0.107-0.085,0.161-0.128c0.012-0.004,0.024-0.01,0.038-0.015 c0.021,0,0.032-0.01,0.034-0.03l0.005-0.005c0.023,0,0.036-0.014,0.042-0.033c0.082-0.058,0.163-0.114,0.245-0.172 c0.219-0.158,0.407-0.348,0.576-0.56c0.011-0.015,0.023-0.031,0.04-0.042c0.022-0.002,0.037-0.015,0.045-0.036 c0.022-0.006,0.036-0.02,0.042-0.043l0.001,0.001c0.147-0.15,0.313-0.284,0.443-0.454c0.109-0.094,0.219-0.188,0.328-0.283 c0.021-0.008,0.035-0.022,0.034-0.046l0,0l0,0l0.001-0.001c0.022-0.005,0.035-0.019,0.038-0.042l0.002-0.002 c0.023-0.001,0.037-0.015,0.042-0.037v-0.007c0.016-0.007,0.028-0.019,0.037-0.034l0,0l0.004-0.003 c0.099-0.092,0.198-0.183,0.297-0.274c0.12-0.085,0.24-0.172,0.359-0.258c0.015-0.01,0.027-0.021,0.039-0.035l0.001-0.001 c0.022-0.001,0.037-0.015,0.044-0.036c0.078-0.062,0.157-0.124,0.236-0.184c0.109-0.083,0.195-0.185,0.25-0.31 c0.034-0.021,0.063-0.046,0.08-0.083l0.001-0.001c0.021-0.005,0.033-0.016,0.032-0.039c0.009-0.009,0.013-0.02,0.014-0.032 c0.022-0.01,0.034-0.025,0.034-0.05l0.001-0.002c0.015-0.009,0.025-0.022,0.032-0.038c0.055-0.053,0.102-0.112,0.114-0.189 c0.012-0.078,0.058-0.136,0.103-0.195c0.07-0.092,0.149-0.176,0.238-0.251c0.042-0.036,0.074-0.074,0.094-0.129 c0.019-0.056,0.053-0.109,0.081-0.163c0.07-0.073,0.131-0.151,0.165-0.248c0.029-0.021,0.034-0.054,0.04-0.087 c0.142-0.177,0.267-0.366,0.363-0.571c0.056-0.042,0.038-0.119,0.081-0.167c0.024-0.003,0.035-0.018,0.035-0.042 c-0.011,0.014-0.023,0.027-0.036,0.042c0.012-0.015,0.024-0.028,0.036-0.042c0.008-0.009,0.012-0.019,0.008-0.03 c0.026-0.025,0.04-0.056,0.037-0.093l0.006-0.012l-0.001-0.013c0.011-0.019,0.022-0.038,0.033-0.056 c0.054-0.072,0.083-0.153,0.085-0.243c0.036-0.035,0.045-0.078,0.039-0.125c0.036-0.045,0.043-0.099,0.045-0.155 c0.026-0.024,0.037-0.055,0.037-0.091c0.037-0.034,0.037-0.079,0.035-0.125c0.128-0.271,0.214-0.553,0.209-0.857 c0.025-0.002,0.034-0.016,0.031-0.041l0.005-0.018l-0.002-0.02c0.013-0.056,0.053-0.104,0.044-0.166 c0.029-0.12,0.059-0.241,0.088-0.361c0.056-0.042,0.016-0.083-0.001-0.125v0c0.025-0.001,0.04-0.016,0.043-0.041 c0.042-0.048,0.057-0.109,0.065-0.167c0.046-0.319,0.137-0.626,0.229-0.934c0.065-0.102,0.146-0.199,0.112-0.334l-0.014-0.037 c-0.029-0.067-0.039-0.138-0.036-0.212c0.003-0.079,0.006-0.157,0.009-0.236c0.009-0.025,0.026-0.05,0.026-0.075 c0.001-0.172,0.046-0.335,0.093-0.498c0.057-0.086,0.082-0.181,0.082-0.282c0.036-0.066,0.062-0.136,0.075-0.211 c0.002-0.025,0.006-0.052,0.008-0.078c0.032-0.02,0.036-0.05,0.034-0.084l0.01-0.012l-0.002-0.015 c0.037-0.04,0.031-0.089,0.035-0.137l0.002,0.001h0c0.049-0.146,0.064-0.298,0.075-0.451c0.004-0.037,0.009-0.073,0.012-0.11 c0.059-0.177,0.088-0.362,0.162-0.534c0.02-0.012,0.031-0.028,0.027-0.052c0.025-0.083,0.054-0.164,0.073-0.249 c0.028-0.117,0.045-0.235,0.021-0.355c0.004-0.01,0.007-0.02,0.009-0.032c0.037-0.125,0.045-0.256,0.062-0.384 c0.036-0.033,0.048-0.075,0.048-0.122c0.006-0.045-0.002-0.105,0.023-0.133c0.078-0.085,0.062-0.18,0.05-0.278 c0.001-0.031,0.004-0.062-0.028-0.082c-0.013-0.053-0.027-0.105-0.041-0.158c-0.001,0-0.002,0-0.003,0.001 c0.065-0.143,0.024-0.286,0-0.429l0,0c0-0.017,0-0.035,0-0.052c0.043-0.076,0.038-0.151-0.002-0.226l0,0l0.004-0.018l-0.004-0.017 c0.009-0.125,0.004-0.249-0.048-0.366c0.024-0.073,0.016-0.142-0.029-0.205c0.005-0.071,0.012-0.144,0.017-0.215 c0.005-0.066,0.004-0.131-0.023-0.194c0.012-0.086,0-0.167-0.044-0.243c-0.001-0.068-0.001-0.136-0.002-0.205l0-0.081 c0.006-0.06,0.019-0.121-0.037-0.167c-0.007-0.03-0.014-0.061-0.042-0.08c-0.015-0.04-0.03-0.08-0.044-0.12 c-0.005-0.023-0.017-0.037-0.042-0.038l0,0c0-0.068-0.036-0.121-0.073-0.173c0-0.013-0.001-0.024-0.007-0.036 c0.004-0.046-0.019-0.084-0.042-0.121c-0.018-0.047-0.037-0.093-0.074-0.128c-0.008-0.053-0.01-0.11-0.027-0.16 c-0.039-0.109-0.066-0.221-0.062-0.337c0.002-0.042-0.002-0.083-0.038-0.111c-0.001-0.06,0.007-0.121-0.039-0.17 c0.001-0.011-0.001-0.022-0.006-0.033c-0.005-0.057,0.015-0.12-0.038-0.166l-0.005,0.002c0.003-0.025-0.007-0.042-0.028-0.056 l-0.167-0.242c-0.122-0.257-0.182-0.537-0.272-0.805c-0.095-0.283-0.215-0.555-0.32-0.833c-0.012-0.029-0.042-0.051-0.064-0.077 c-0.13-0.196-0.259-0.392-0.39-0.589c-0.022-0.033-0.046-0.065-0.07-0.098c0-0.023-0.009-0.042-0.029-0.055l0.001-0.014 l-0.009-0.012c0.001-0.026-0.011-0.042-0.032-0.052l0,0c-0.016-0.046-0.038-0.087-0.08-0.115c-0.07-0.132-0.132-0.268-0.25-0.367 c0-0.035-0.017-0.061-0.045-0.08c-0.011-0.015-0.021-0.031-0.032-0.045c-0.084-0.158-0.166-0.318-0.285-0.454 c-0.027-0.069-0.069-0.123-0.13-0.163c-0.018-0.028-0.033-0.059-0.055-0.083c-0.084-0.096-0.166-0.19-0.212-0.314 c-0.025-0.068-0.067-0.131-0.135-0.17c-0.008-0.022-0.021-0.038-0.044-0.044c-0.001-0.035-0.008-0.066-0.044-0.084 c-0.003-0.019-0.015-0.031-0.035-0.035c-0.034-0.086-0.097-0.129-0.189-0.121c-0.09,0.008-0.143-0.051-0.166-0.119 c-0.018-0.055-0.047-0.094-0.084-0.133c-0.089-0.091-0.178-0.183-0.268-0.274c-0.016-0.042-0.048-0.065-0.085-0.083 c-0.014-0.039-0.038-0.069-0.078-0.083c-0.032-0.076-0.093-0.124-0.161-0.166C26.987,4.769,26.92,4.7,26.852,4.631 c-0.013-0.038-0.043-0.062-0.074-0.082c-0.015-0.041-0.037-0.074-0.082-0.084l-0.002,0c-0.007-0.025-0.025-0.035-0.048-0.039 c-0.18-0.145-0.339-0.309-0.477-0.495c-0.022-0.031-0.063-0.048-0.096-0.072c-0.223-0.193-0.481-0.336-0.726-0.497 c0-0.002-0.001-0.003-0.005-0.004c-0.015-0.012-0.028-0.022-0.043-0.034c-0.005-0.025-0.018-0.041-0.04-0.051 c-0.061-0.091-0.139-0.157-0.232-0.216c-0.192-0.123-0.393-0.23-0.588-0.346c-0.029-0.045-0.075-0.045-0.121-0.047 c-0.007-0.022-0.024-0.03-0.047-0.03c-0.008-0.008-0.018-0.012-0.028-0.011c-0.024-0.027-0.055-0.037-0.09-0.037 c-0.008-0.021-0.023-0.031-0.046-0.028c-0.01-0.007-0.021-0.011-0.034-0.011c-0.021-0.028-0.05-0.039-0.083-0.041 c-0.025-0.022-0.051-0.042-0.086-0.037l-0.155-0.09c-0.012-0.019-0.028-0.03-0.052-0.025c-0.143-0.084-0.286-0.166-0.446-0.216 c-0.031-0.036-0.075-0.04-0.119-0.044c-0.018-0.036-0.049-0.054-0.088-0.064c-0.008-0.011-0.019-0.016-0.032-0.015 c-0.033-0.042-0.072-0.075-0.126-0.083c-0.007-0.021-0.023-0.032-0.046-0.033c-0.185-0.125-0.385-0.213-0.604-0.256 c-0.291-0.147-0.594-0.262-0.907-0.354c-0.1-0.05-0.21-0.065-0.315-0.096h0c-0.142-0.085-0.301-0.119-0.46-0.158 c-0.022-0.012-0.042-0.032-0.067-0.035c-0.117-0.016-0.228-0.056-0.34-0.088c-0.05-0.037-0.11-0.03-0.166-0.035 c-0.012-0.007-0.023-0.009-0.036-0.008c-0.1-0.062-0.219-0.056-0.327-0.09h0c-0.054-0.054-0.086-0.131-0.168-0.154 c-0.022-0.026-0.045-0.048-0.083-0.042c-0.125-0.079-0.264-0.107-0.409-0.117c-0.024-0.003-0.047-0.006-0.071-0.01 c-0.096-0.027-0.189-0.066-0.286-0.076c-0.192-0.021-0.383-0.062-0.577-0.049c-0.093-0.056-0.194-0.031-0.294-0.029 c-0.081-0.006-0.161-0.029-0.243-0.004c-0.013,0-0.027-0.001-0.04-0.001c-0.042,0-0.083,0-0.124,0c-0.095,0-0.19,0-0.284,0 C16.972,0.26,16.898,0.26,16.824,0.26c-0.094,0.001-0.186,0.022-0.277,0.042c-0.292-0.01-0.576,0.045-0.856,0.12 c-0.056-0.01-0.111-0.014-0.166,0c-0.223-0.029-0.439-0.003-0.651,0.075c-0.026,0.001-0.055,0.002-0.082,0.003 c-0.087-0.015-0.174-0.018-0.251,0.033l-0.002,0c-0.038,0.004-0.076,0.007-0.113,0.011c-0.061-0.01-0.121-0.008-0.173,0.031 c-0.011-0.003-0.022-0.001-0.032,0.007c-0.034-0.005-0.06,0.012-0.084,0.034c-0.138-0.008-0.268,0.021-0.394,0.076 c-0.007,0.001-0.013,0.004-0.02,0.007c-0.014-0.003-0.026,0.002-0.036,0.012c-0.074-0.001-0.148-0.003-0.222-0.003 c-0.053,0-0.11-0.006-0.155,0.031c-0.012-0.003-0.022,0-0.03,0.01c-0.096,0.002-0.192-0.005-0.286,0.02 c-0.014,0.003-0.028,0.007-0.042,0.014c-0.012-0.003-0.024-0.002-0.037,0.001L12.87,0.788c-0.012-0.001-0.024,0-0.036,0.003 c-0.035-0.009-0.064,0.003-0.088,0.029c-0.039,0.005-0.078,0.01-0.116,0.014c-0.034-0.009-0.066-0.003-0.091,0.021 c-0.172,0.057-0.357,0.058-0.524,0.133c-0.047-0.006-0.093-0.005-0.132,0.03c-0.011,0.001-0.022,0.004-0.032,0.01 c-0.034-0.002-0.064,0.007-0.086,0.034c-0.025,0.006-0.05,0.011-0.075,0.016c-0.034-0.009-0.064,0-0.09,0.022 c-0.205,0-0.396,0.074-0.594,0.103c-0.115,0.018-0.235,0.043-0.341,0.103c-0.014-0.001-0.026,0.001-0.037,0.012 c-0.121,0.018-0.226,0.079-0.336,0.121C10.099,1.514,9.91,1.597,9.72,1.676C9.675,1.675,9.631,1.68,9.599,1.717 C9.585,1.716,9.574,1.719,9.563,1.726c-0.024-0.002-0.04,0.009-0.049,0.031C9.461,1.784,9.409,1.812,9.356,1.837 c-0.188,0.057-0.35,0.172-0.53,0.248C8.801,2.087,8.787,2.104,8.777,2.125c-0.141,0.005-0.26,0.062-0.362,0.158 C8.357,2.31,8.3,2.337,8.243,2.364c-0.128,0.022-0.239,0.079-0.34,0.159C7.82,2.59,7.731,2.646,7.622,2.669 C7.552,2.685,7.484,2.716,7.438,2.781c-0.257,0.114-0.49,0.272-0.736,0.405c-0.035,0-0.061,0.017-0.081,0.042 C6.573,3.244,6.53,3.265,6.497,3.304C6.464,3.308,6.435,3.321,6.418,3.352C6.396,3.355,6.381,3.366,6.373,3.387 C6.349,3.392,6.334,3.405,6.328,3.428c0,0-0.001-0.001-0.003-0.002C6.17,3.544,6.015,3.665,5.858,3.782 c-0.14,0.106-0.281,0.213-0.425,0.312c-0.119,0.082-0.229,0.167-0.328,0.27C5.078,4.393,5.045,4.418,5.011,4.44 C4.943,4.487,4.889,4.548,4.837,4.61C4.761,4.706,4.67,4.787,4.583,4.871c-0.111,0.107-0.231,0.21-0.301,0.353 C4.246,5.229,4.223,5.252,4.199,5.278c-0.088,0.101-0.179,0.2-0.27,0.3c-0.154,0.169-0.295,0.35-0.405,0.551L3.521,6.133 C3.508,6.14,3.499,6.152,3.494,6.166l0,0C3.482,6.172,3.475,6.183,3.475,6.197c-0.014,0.016-0.026,0.032-0.04,0.047 C3.412,6.25,3.398,6.265,3.394,6.288C3.373,6.295,3.36,6.311,3.356,6.332h0C3.343,6.344,3.333,6.357,3.325,6.371L3.192,6.574 C3.18,6.587,3.17,6.602,3.165,6.618l0,0C3.155,6.627,3.149,6.64,3.15,6.654C3.14,6.669,3.129,6.684,3.119,6.7 C3.11,6.709,3.105,6.719,3.106,6.732c-0.021,0.01-0.034,0.025-0.035,0.049l0,0.001C3.052,6.79,3.042,6.802,3.042,6.822 C2.899,7.038,2.722,7.23,2.618,7.47C2.554,7.559,2.46,7.628,2.455,7.751C2.435,7.77,2.414,7.786,2.397,7.807 c-0.12,0.159-0.183,0.345-0.257,0.527c-0.134,0.235-0.245,0.48-0.335,0.735C1.762,9.101,1.761,9.145,1.77,9.192 C1.764,9.203,1.76,9.215,1.761,9.228C1.737,9.251,1.725,9.279,1.729,9.313c-0.025,0.08-0.052,0.159-0.051,0.243 C1.635,9.604,1.614,9.661,1.601,9.721C1.578,9.743,1.562,9.768,1.56,9.801C1.501,9.874,1.519,9.969,1.483,10.05 c-0.031,0.035-0.049,0.074-0.045,0.121c-0.082,0.111-0.125,0.239-0.163,0.368c-0.048,0.104-0.081,0.214-0.144,0.311 c-0.025,0.038-0.042,0.085-0.052,0.13c-0.057,0.258-0.176,0.494-0.25,0.744c-0.014,0.03-0.036,0.061-0.037,0.092 c-0.009,0.157-0.055,0.304-0.11,0.449c-0.02,0.052-0.022,0.105-0.027,0.158c-0.018,0.181-0.034,0.361-0.08,0.538 c-0.021,0.078-0.087,0.139-0.079,0.226c-0.058,0.117-0.086,0.241-0.085,0.373c-0.009,0.031-0.025,0.063-0.026,0.095 c-0.005,0.132-0.005,0.265-0.008,0.398c-0.009,0.007-0.01,0.015-0.003,0.025c-0.025,0.028-0.035,0.06-0.03,0.097 c-0.011,0.058-0.026,0.117-0.031,0.178c-0.028,0.267-0.013,0.535-0.016,0.803c0.007,0.167,0.013,0.334-0.005,0.5 c-0.002,0.021,0.001,0.04,0.003,0.062c-0.042,0.073-0.04,0.146,0.001,0.218l0,0c0,0,0,0,0,0.001 c-0.038,0.257-0.059,0.516,0.009,0.772c0,0.027,0,0.055,0,0.081c-0.001,0.114-0.03,0.229,0.033,0.336 c0.004,0.068,0.006,0.136,0.049,0.195c-0.002,0.05-0.004,0.098,0.031,0.14c0.007,0.094,0.01,0.187,0.035,0.279 c0.019,0.07,0.024,0.142,0.024,0.217c0.001,0.161,0.018,0.322,0.043,0.481c0.029,0.18,0.074,0.356,0.114,0.534 c0.005,0.025,0.022,0.048,0.033,0.073c0,0.08,0.015,0.161,0.045,0.234c0.053,0.125,0.082,0.254,0.105,0.385 c0.027,0.148,0.081,0.282,0.184,0.394C1,20.083,1.012,20.099,1.032,20.11l0,0c0.082,0.19,0.114,0.397,0.2,0.587 c0.036,0.081,0.071,0.158,0.134,0.22c0.052,0.118,0.11,0.233,0.151,0.354c0.035,0.103,0.082,0.2,0.137,0.293 c0.064,0.104,0.13,0.207,0.166,0.325c0.012,0.039,0.035,0.073,0.074,0.093c0.022,0.045,0.038,0.092,0.08,0.124 c0.005,0.032,0.014,0.061,0.042,0.079c0.015,0.053,0.038,0.098,0.084,0.127c0.066,0.169,0.171,0.321,0.223,0.498 c0.008,0.03,0.042,0.052,0.062,0.078c0,0.014,0.004,0.026,0.017,0.034c0.008,0.015,0.018,0.03,0.027,0.044 c-0.001,0.012,0,0.024,0.005,0.035c-0.004,0.023,0.005,0.04,0.026,0.049c0.005,0.013,0.012,0.024,0.02,0.034 c-0.002,0.025,0.007,0.043,0.027,0.056c-0.004,0.012,0,0.02,0.009,0.026c-0.003,0.036,0.002,0.069,0.032,0.094 c-0.002,0.012,0.001,0.021,0.012,0.027c0,0.023,0.01,0.037,0.03,0.045c-0.002,0.013,0.001,0.025,0.008,0.036 c0.001,0.023,0.013,0.037,0.035,0.043l0,0c0.003,0.021,0.011,0.038,0.031,0.047c0.045,0.065,0.087,0.132,0.132,0.198 c0.002,0.024,0.014,0.04,0.039,0.046l0,0.002c0.019,0.066,0.052,0.13,0.103,0.172s0.074,0.093,0.105,0.146 c0.11,0.195,0.222,0.388,0.336,0.58c0.027,0.045,0.056,0.094,0.106,0.122c0.061,0.039,0.08,0.112,0.126,0.163l0,0 c0.005,0.022,0.02,0.037,0.042,0.041L3.652,24.93c0.005,0.022,0.018,0.037,0.04,0.044c0.084,0.106,0.168,0.212,0.251,0.318 c0.013,0.015,0.029,0.026,0.039,0.043c0,0,0,0,0,0C3.986,25.359,4,25.373,4.022,25.377l0.249,0.283l0,0 c0.003,0.023,0.017,0.038,0.039,0.043c0.005,0.022,0.018,0.038,0.042,0.043c0.026,0.039,0.056,0.075,0.08,0.115 c0.042,0.069,0.091,0.131,0.167,0.166c0.048,0.047,0.103,0.089,0.146,0.141C4.858,26.311,5.003,26.423,5.11,26.573"/>
    </clipPath>
    <symbol id="pie" viewBox="0 0 32 32">
      <title>Pie</title>
      <circle r="16" cx="16" cy="16" clip-path="url(#pie-clip)" />
    </symbol>
  </defs>
</svg>
